<?xml version="1.0" encoding="UTF-8" ?>
<!DOCTYPE svg PUBLIC "-//W3C//DTD SVG 1.1//EN" "http://www.w3.org/Graphics/SVG/1.1/DTD/svg11.dtd">
<svg width="538pt" height="164pt" viewBox="0 0 538 164" version="1.1" xmlns="http://www.w3.org/2000/svg">
<g id="#ffffffff">
</g>
<g id="#000000ff">
<path fill="#000000" opacity="1.00" d=" M 173.62 10.59 C 181.21 5.55 189.93 2.14 198.98 0.96 C 214.45 -0.61 229.88 2.35 245.01 5.30 C 267.10 9.66 289.40 13.31 311.92 14.39 C 323.57 14.74 335.31 14.68 346.78 12.34 C 346.74 15.44 343.07 16.40 340.93 17.89 C 327.06 24.67 311.22 25.88 296.01 25.75 C 273.55 26.10 251.55 20.98 229.37 18.30 C 215.12 16.62 200.62 14.82 186.33 17.08 C 179.22 18.33 171.81 20.48 166.51 25.65 C 160.11 32.18 157.45 42.23 159.97 51.05 C 161.71 56.44 166.77 60.01 171.90 61.87 C 173.22 62.50 175.13 62.67 175.38 64.52 C 166.98 64.45 158.34 59.28 155.59 51.10 C 152.77 42.78 154.76 33.51 158.89 25.97 C 162.19 19.54 167.65 14.52 173.62 10.59 Z" />
<path fill="#000000" opacity="1.00" d=" M 442.66 28.62 C 447.93 22.48 453.98 16.12 462.14 14.16 C 466.53 13.00 472.21 14.66 473.61 19.41 C 474.95 24.87 472.00 30.16 470.17 35.16 C 459.19 59.73 442.24 81.23 423.14 100.00 C 422.49 104.15 420.87 108.84 423.25 112.75 C 425.28 115.77 429.70 115.12 432.41 113.41 C 437.59 110.05 441.69 105.35 446.07 101.06 C 458.47 87.99 469.94 74.08 481.45 60.25 C 482.56 58.44 486.03 58.44 485.87 61.06 C 487.90 73.03 491.62 84.88 490.99 97.14 C 490.78 103.85 489.07 111.13 483.84 115.73 C 480.52 118.78 476.01 119.75 471.74 120.63 C 483.43 122.45 495.86 121.24 506.32 115.41 C 518.60 108.64 527.87 96.24 529.71 82.21 C 531.52 69.22 528.76 54.62 519.26 45.03 C 519.59 44.64 520.24 43.85 520.57 43.45 C 529.62 49.67 535.27 59.98 536.85 70.73 C 538.96 81.98 535.79 93.87 529.05 103.03 C 522.23 112.23 512.53 119.47 501.45 122.62 C 491.23 125.34 480.32 125.66 469.99 123.36 C 463.04 121.66 455.59 118.35 452.29 111.57 C 451.48 109.63 450.23 106.67 452.44 105.21 C 454.10 104.48 456.03 105.63 456.82 107.13 C 457.77 109.28 457.38 112.01 459.12 113.80 C 461.44 116.57 465.68 116.10 468.62 114.67 C 472.34 112.47 474.08 108.16 474.93 104.11 C 476.83 94.60 475.66 84.83 474.22 75.35 C 461.83 89.88 449.91 105.13 434.63 116.79 C 429.24 120.86 421.52 122.89 415.23 119.76 C 411.87 118.20 410.14 114.79 408.58 111.64 C 404.79 115.25 400.84 119.07 395.63 120.42 C 390.12 122.17 383.47 121.98 378.87 118.14 C 376.31 116.02 375.32 112.73 374.58 109.62 C 369.86 115.45 363.37 120.26 355.82 121.46 C 350.31 122.39 344.04 121.07 340.17 116.82 C 337.62 114.15 336.49 110.52 335.69 107.00 C 331.97 111.75 327.93 116.49 322.71 119.64 C 317.82 122.39 310.67 122.84 306.69 118.31 C 302.83 113.71 303.42 107.13 304.88 101.70 C 307.96 91.14 314.22 81.69 316.69 70.95 C 317.43 66.88 311.93 66.79 309.56 68.51 C 299.15 74.63 289.23 83.14 284.91 94.75 C 281.37 103.25 277.79 111.74 274.24 120.25 C 268.97 120.25 263.70 120.25 258.43 120.25 C 259.72 117.20 260.99 114.14 262.32 111.11 C 258.00 115.32 253.15 119.40 247.30 121.22 C 241.85 122.94 235.35 120.29 233.09 114.94 C 230.38 108.32 231.89 100.81 234.45 94.38 C 238.88 83.74 243.37 73.13 247.82 62.50 C 253.08 62.50 258.34 62.50 263.60 62.50 C 257.76 76.70 251.77 90.85 245.99 105.07 C 244.95 108.28 243.41 112.24 245.61 115.30 C 247.66 116.53 250.15 115.15 251.96 114.03 C 257.45 110.23 261.94 105.19 266.57 100.44 C 272.23 87.93 277.25 75.12 282.65 62.49 C 287.90 62.51 293.15 62.48 298.40 62.51 C 296.72 66.68 294.97 70.83 293.20 74.96 C 299.83 68.13 308.17 62.35 317.79 60.99 C 322.32 60.25 327.84 61.32 330.47 65.45 C 332.80 69.47 332.28 74.47 330.83 78.70 C 327.61 88.14 323.40 97.20 319.15 106.21 C 318.03 109.02 316.59 111.92 316.79 115.02 C 317.28 117.41 319.99 116.38 321.40 115.55 C 327.44 111.63 331.62 105.59 335.59 99.72 C 337.25 87.01 344.66 75.53 354.49 67.52 C 361.48 61.98 370.50 57.76 379.60 59.63 C 383.88 60.45 387.26 63.54 389.32 67.27 C 390.14 65.34 390.98 63.42 391.83 61.50 C 397.08 61.50 402.34 61.50 407.60 61.50 C 401.82 75.38 395.98 89.25 390.17 103.12 C 388.93 106.20 387.87 109.64 388.81 112.94 C 389.48 115.46 392.41 116.59 394.77 115.82 C 400.06 114.49 404.12 110.56 407.97 106.92 C 407.76 101.88 408.97 96.95 410.13 92.08 C 415.95 68.80 427.73 47.29 442.66 28.62 M 467.48 20.37 C 463.17 22.94 460.34 27.30 457.26 31.15 C 443.72 49.79 432.38 70.25 425.39 92.27 C 440.30 76.13 453.35 58.20 463.71 38.81 C 466.20 33.73 468.90 28.58 469.83 22.95 C 470.35 21.60 468.95 19.43 467.48 20.37 M 373.58 65.60 C 368.24 68.40 364.41 73.25 361.08 78.14 C 355.99 85.91 351.97 94.53 350.31 103.71 C 349.70 107.57 349.19 112.02 351.53 115.43 C 354.27 118.48 358.94 116.67 362.02 115.07 C 372.30 109.25 376.83 97.80 381.33 87.53 C 383.52 81.66 386.91 75.39 385.18 68.98 C 383.71 64.21 377.48 63.13 373.58 65.60 Z" />
<path fill="#000000" opacity="1.00" d=" M 228.69 34.79 C 233.93 30.32 239.62 26.08 246.06 23.58 L 247.67 23.90 C 242.83 29.69 238.85 36.12 234.69 42.36 C 230.00 43.36 225.27 44.46 220.47 44.71 C 222.14 40.64 225.60 37.76 228.69 34.79 Z" />
<path fill="#000000" opacity="1.00" d=" M 111.37 50.41 C 114.45 46.12 118.75 42.26 124.18 41.55 C 126.71 41.18 129.99 41.59 131.15 44.23 C 132.49 47.12 130.92 50.18 130.43 53.06 C 137.39 53.80 144.39 53.86 151.37 53.48 C 151.16 55.17 149.54 55.74 148.26 56.37 C 141.46 59.56 133.99 61.10 126.51 61.34 C 121.34 69.93 114.40 77.38 106.47 83.49 C 104.33 84.85 103.70 87.44 102.62 89.59 C 107.38 85.02 113.40 80.60 120.35 81.14 C 124.28 81.37 128.29 84.70 127.49 88.96 C 126.53 94.99 123.20 100.29 120.81 105.83 C 119.68 108.65 117.56 111.46 118.00 114.62 C 122.92 114.07 126.30 109.55 128.81 105.68 C 130.97 95.17 138.60 85.50 148.91 82.05 C 153.88 80.58 159.99 80.49 164.15 83.98 C 167.36 86.79 166.03 91.78 163.78 94.78 C 158.15 102.43 148.33 105.17 139.37 106.50 C 138.58 109.26 138.13 113.29 141.42 114.59 C 145.82 116.13 150.59 114.42 154.58 112.47 C 157.30 111.23 159.17 108.35 162.36 108.25 C 162.66 111.15 159.81 112.53 157.83 113.97 C 151.70 118.02 143.68 120.36 136.56 117.69 C 133.22 116.53 131.01 113.63 129.53 110.56 C 125.74 114.65 121.08 119.31 115.01 118.74 C 110.23 118.55 107.34 113.31 108.34 108.94 C 110.10 100.91 115.33 94.07 116.96 86.01 C 110.06 86.84 104.45 92.12 100.70 97.70 C 96.58 103.75 93.57 110.45 90.73 117.16 C 87.33 117.40 83.93 117.59 80.52 117.48 C 83.39 109.23 87.25 101.35 90.58 93.28 C 87.57 94.59 84.53 95.94 81.28 96.53 C 80.97 96.18 80.35 95.47 80.04 95.12 C 83.68 91.82 88.72 90.60 92.82 87.92 C 97.30 78.46 101.30 68.78 106.13 59.49 C 90.16 57.06 74.26 52.87 57.99 53.56 C 50.78 53.75 43.54 57.86 40.69 64.66 C 39.10 67.92 39.31 71.64 40.06 75.09 C 43.50 74.72 47.01 74.54 50.43 75.17 C 50.57 75.60 50.85 76.46 50.99 76.89 C 47.67 76.97 44.32 76.98 41.07 77.78 C 42.42 79.75 43.91 81.78 46.17 82.75 C 50.11 84.80 54.67 83.87 58.87 83.44 C 58.76 86.59 54.54 86.33 52.23 86.67 C 46.28 87.36 40.82 83.86 37.95 78.80 C 32.89 81.53 27.87 85.16 25.56 90.61 C 22.73 96.78 22.16 104.35 25.28 110.51 C 28.89 117.59 38.37 120.73 45.52 117.36 C 51.62 114.55 55.95 109.05 59.47 103.51 C 66.66 91.61 71.51 78.25 80.36 67.38 C 84.26 63.21 88.72 58.53 94.64 57.72 C 92.82 61.99 89.69 65.52 87.78 69.75 C 82.66 80.75 79.15 92.50 73.03 103.02 C 67.69 112.59 58.18 120.15 47.11 121.51 C 41.42 121.98 35.41 122.14 30.05 119.87 C 20.61 115.71 15.65 104.14 18.13 94.32 C 20.51 85.30 28.02 78.27 36.91 75.79 C 35.14 69.27 36.37 61.99 40.43 56.56 C 45.56 49.75 53.66 45.29 62.18 44.67 C 78.80 43.05 95.16 47.40 111.37 50.41 M 120.49 51.86 C 122.48 52.12 124.47 52.37 126.46 52.61 C 127.37 50.21 128.11 47.71 127.96 45.12 C 124.03 45.07 122.39 49.12 120.49 51.86 M 108.21 77.11 C 113.53 72.49 118.43 67.31 122.15 61.28 C 120.03 61.09 117.90 60.92 115.78 60.71 C 113.22 66.16 110.64 71.60 108.21 77.11 M 140.60 103.10 C 149.16 102.08 157.54 97.04 160.86 88.84 C 162.36 85.86 158.53 83.50 155.98 84.84 C 148.13 87.93 144.05 95.93 140.60 103.10 Z" />
<path fill="#000000" opacity="1.00" d=" M 210.61 61.08 C 215.77 59.70 221.19 58.03 226.55 58.87 C 216.56 81.26 206.57 104.45 189.42 122.44 C 173.04 139.11 152.56 151.99 130.00 158.33 C 98.63 167.50 63.66 164.60 34.74 149.12 C 22.48 142.87 10.83 134.04 4.52 121.51 C -0.06 112.23 -1.39 100.39 4.29 91.29 C 6.20 88.59 8.17 85.27 11.73 84.69 C 10.56 88.32 8.16 91.44 7.37 95.21 C 4.62 105.53 8.00 116.48 14.04 124.98 C 22.62 137.63 36.69 145.28 50.91 149.92 C 89.40 162.21 133.79 153.73 165.07 128.16 C 186.07 110.35 198.05 84.98 210.61 61.08 Z" />
</g>
<g id="#fa002cff">
<path fill="#fa002c" opacity="1.00" d=" M 269.17 41.12 C 276.89 37.19 284.32 32.67 292.16 28.94 C 289.61 33.49 286.64 37.78 284.03 42.29 C 290.23 42.82 296.44 43.15 302.62 43.90 C 294.34 46.67 285.94 49.03 277.55 51.45 C 274.48 56.41 271.42 61.37 268.20 66.23 C 265.84 62.73 263.43 59.28 261.02 55.81 C 252.17 58.30 243.27 60.57 234.41 63.01 C 241.31 57.94 248.70 53.57 255.98 49.07 C 253.70 46.13 251.33 43.25 248.91 40.41 C 255.67 40.43 262.42 41.31 269.17 41.12 Z" />
<path fill="#fa002c" opacity="1.00" d=" M 194.91 56.82 C 210.66 49.20 227.88 43.66 245.57 44.22 C 247.12 46.07 248.68 47.91 250.22 49.76 C 247.44 51.45 244.88 53.53 241.93 54.92 C 236.01 54.84 230.05 54.80 224.18 55.73 C 205.51 58.42 188.31 66.62 171.20 74.12 C 162.35 78.06 152.20 80.04 142.68 77.49 C 148.87 77.12 155.05 76.13 160.89 74.00 C 172.95 69.81 183.55 62.51 194.91 56.82 Z" />
</g>
</svg>
